<?xml version="1.0" encoding="iso-8859-1"?>
<!-- Generator: Adobe Illustrator 21.0.0, SVG Export Plug-In . SVG Version: 6.00 Build 0)  -->
<svg xmlns="http://www.w3.org/2000/svg" xmlns:xlink="http://www.w3.org/1999/xlink" version="1.1" id="Capa_1" x="0px" y="0px" viewBox="0 0 512 512" style="enable-background:new 0 0 512 512;" xml:space="preserve" width="512" height="512">
<g>
	<path style="fill:#FF637B;" d="M512,271l-37.5,30H30L0,271l56.1-140.7c2.401-5.7,7.8-9.3,14.101-9.3h371.598   c6.301,0,11.7,3.6,14.101,9.3L512,271z"/>
	<path style="fill:#E63950;" d="M512,271l-37.5,30H256V121h185.799c6.301,0,11.7,3.6,14.101,9.3L512,271z"/>
	<path style="fill:#FFF5F5;" d="M391,15v181H121V15c0-8.401,6.599-15,15-15h240C384.401,0,391,6.599,391,15z"/>
	<path style="fill:#EFE2DD;" d="M391,15v181H256V0h120C384.401,0,391,6.599,391,15z"/>
	<path style="fill:#FF637B;" d="M482,316v181c0,8.399-6.599,15-15,15H45c-8.401,0-15-6.601-15-15V316c0-8.401,6.599-15,15-15h422   C475.401,301,482,307.599,482,316z"/>
	<path style="fill:#E63950;" d="M482,316v181c0,8.399-6.599,15-15,15H256V301h211C475.401,301,482,307.599,482,316z"/>
	<path style="fill:#FFD396;" d="M346,391H166c-8.401,0-15,6.599-15,15v30c0,8.399,6.599,15,15,15h180c8.401,0,15-6.601,15-15v-30   C361,397.599,354.401,391,346,391z"/>
	<path style="fill:#7FE881;" d="M321.4,76.899L256,142l-4.501,4.499C248.8,149.5,244.9,151,241,151s-7.8-1.5-10.499-4.501l-45-45   c-6-5.7-6-15.3,0-21c5.7-5.999,15.298-5.999,20.999,0l34.501,34.2L300.099,55.6c5.7-5.7,15.3-5.7,21.301,0   C327.1,61.599,327.1,71.199,321.4,76.899z"/>
	<path style="fill:#5BC980;" d="M321.4,76.899L256,142V99.699L300.099,55.6c5.7-5.7,15.3-5.7,21.301,0   C327.1,61.599,327.1,71.199,321.4,76.899z"/>
	<path style="fill:#FFB64C;" d="M361,406v30c0,8.399-6.599,15-15,15h-90v-60h90C354.401,391,361,397.599,361,406z"/>
	<path style="fill:#E63950;" d="M512,271v45c0,8.399-6.599,15-15,15H15c-8.401,0-15-6.601-15-15v-45H512z"/>
	<path style="fill:#AE2538;" d="M512,271v45c0,8.399-6.599,15-15,15H256v-60H512z"/>
	<path style="fill:#7C8388;" d="M421,196c0,8.399-6.599,15-15,15H106c-8.401,0-15-6.601-15-15c0-8.401,6.599-15,15-15h300   C414.401,181,421,187.599,421,196z"/>
	<path style="fill:#575F64;" d="M406,211H256v-30h150c8.401,0,15,6.599,15,15C421,204.399,414.401,211,406,211z"/>
</g>















</svg>
